<svg width="581" height="84" viewBox="0 0 581 84" fill="none" xmlns="http://www.w3.org/2000/svg">
<circle cx="42" cy="42" r="42" fill="white"/>
<path d="M40.8125 49.0703C40.8125 48.4609 40.7188 47.9141 40.5312 47.4297C40.3594 46.9297 40.0312 46.4766 39.5469 46.0703C39.0625 45.6484 38.3828 45.2344 37.5078 44.8281C36.6328 44.4219 35.5 44 34.1094 43.5625C32.5625 43.0625 31.0938 42.5 29.7031 41.875C28.3281 41.25 27.1094 40.5234 26.0469 39.6953C25 38.8516 24.1719 37.875 23.5625 36.7656C22.9688 35.6562 22.6719 34.3672 22.6719 32.8984C22.6719 31.4766 22.9844 30.1875 23.6094 29.0312C24.2344 27.8594 25.1094 26.8594 26.2344 26.0312C27.3594 25.1875 28.6875 24.5391 30.2188 24.0859C31.7656 23.6328 33.4609 23.4062 35.3047 23.4062C37.8203 23.4062 40.0156 23.8594 41.8906 24.7656C43.7656 25.6719 45.2188 26.9141 46.25 28.4922C47.2969 30.0703 47.8203 31.875 47.8203 33.9062H40.8359C40.8359 32.9062 40.625 32.0312 40.2031 31.2812C39.7969 30.5156 39.1719 29.9141 38.3281 29.4766C37.5 29.0391 36.4531 28.8203 35.1875 28.8203C33.9688 28.8203 32.9531 29.0078 32.1406 29.3828C31.3281 29.7422 30.7188 30.2344 30.3125 30.8594C29.9062 31.4688 29.7031 32.1562 29.7031 32.9219C29.7031 33.5 29.8438 34.0234 30.125 34.4922C30.4219 34.9609 30.8594 35.3984 31.4375 35.8047C32.0156 36.2109 32.7266 36.5938 33.5703 36.9531C34.4141 37.3125 35.3906 37.6641 36.5 38.0078C38.3594 38.5703 39.9922 39.2031 41.3984 39.9062C42.8203 40.6094 44.0078 41.3984 44.9609 42.2734C45.9141 43.1484 46.6328 44.1406 47.1172 45.25C47.6016 46.3594 47.8438 47.6172 47.8438 49.0234C47.8438 50.5078 47.5547 51.8359 46.9766 53.0078C46.3984 54.1797 45.5625 55.1719 44.4688 55.9844C43.375 56.7969 42.0703 57.4141 40.5547 57.8359C39.0391 58.2578 37.3438 58.4688 35.4688 58.4688C33.7812 58.4688 32.1172 58.25 30.4766 57.8125C28.8359 57.3594 27.3438 56.6797 26 55.7734C24.6719 54.8672 23.6094 53.7109 22.8125 52.3047C22.0156 50.8984 21.6172 49.2344 21.6172 47.3125H28.6719C28.6719 48.375 28.8359 49.2734 29.1641 50.0078C29.4922 50.7422 29.9531 51.3359 30.5469 51.7891C31.1562 52.2422 31.875 52.5703 32.7031 52.7734C33.5469 52.9766 34.4688 53.0781 35.4688 53.0781C36.6875 53.0781 37.6875 52.9062 38.4688 52.5625C39.2656 52.2188 39.8516 51.7422 40.2266 51.1328C40.6172 50.5234 40.8125 49.8359 40.8125 49.0703ZM60.1016 23.875V58H53.0938V23.875H60.1016Z" fill="#0008C1"/>
<path d="M111.812 49.0703C111.812 48.4609 111.719 47.9141 111.531 47.4297C111.359 46.9297 111.031 46.4766 110.547 46.0703C110.062 45.6484 109.383 45.2344 108.508 44.8281C107.633 44.4219 106.5 44 105.109 43.5625C103.562 43.0625 102.094 42.5 100.703 41.875C99.3281 41.25 98.1094 40.5234 97.0469 39.6953C96 38.8516 95.1719 37.875 94.5625 36.7656C93.9688 35.6562 93.6719 34.3672 93.6719 32.8984C93.6719 31.4766 93.9844 30.1875 94.6094 29.0312C95.2344 27.8594 96.1094 26.8594 97.2344 26.0312C98.3594 25.1875 99.6875 24.5391 101.219 24.0859C102.766 23.6328 104.461 23.4062 106.305 23.4062C108.82 23.4062 111.016 23.8594 112.891 24.7656C114.766 25.6719 116.219 26.9141 117.25 28.4922C118.297 30.0703 118.82 31.875 118.82 33.9062H111.836C111.836 32.9062 111.625 32.0312 111.203 31.2812C110.797 30.5156 110.172 29.9141 109.328 29.4766C108.5 29.0391 107.453 28.8203 106.188 28.8203C104.969 28.8203 103.953 29.0078 103.141 29.3828C102.328 29.7422 101.719 30.2344 101.312 30.8594C100.906 31.4688 100.703 32.1562 100.703 32.9219C100.703 33.5 100.844 34.0234 101.125 34.4922C101.422 34.9609 101.859 35.3984 102.438 35.8047C103.016 36.2109 103.727 36.5938 104.57 36.9531C105.414 37.3125 106.391 37.6641 107.5 38.0078C109.359 38.5703 110.992 39.2031 112.398 39.9062C113.82 40.6094 115.008 41.3984 115.961 42.2734C116.914 43.1484 117.633 44.1406 118.117 45.25C118.602 46.3594 118.844 47.6172 118.844 49.0234C118.844 50.5078 118.555 51.8359 117.977 53.0078C117.398 54.1797 116.562 55.1719 115.469 55.9844C114.375 56.7969 113.07 57.4141 111.555 57.8359C110.039 58.2578 108.344 58.4688 106.469 58.4688C104.781 58.4688 103.117 58.25 101.477 57.8125C99.8359 57.3594 98.3438 56.6797 97 55.7734C95.6719 54.8672 94.6094 53.7109 93.8125 52.3047C93.0156 50.8984 92.6172 49.2344 92.6172 47.3125H99.6719C99.6719 48.375 99.8359 49.2734 100.164 50.0078C100.492 50.7422 100.953 51.3359 101.547 51.7891C102.156 52.2422 102.875 52.5703 103.703 52.7734C104.547 52.9766 105.469 53.0781 106.469 53.0781C107.688 53.0781 108.688 52.9062 109.469 52.5625C110.266 52.2188 110.852 51.7422 111.227 51.1328C111.617 50.5234 111.812 49.8359 111.812 49.0703ZM131.102 23.875V58H124.094V23.875H131.102ZM163.516 29.7109L154.234 58H146.758L159.438 23.875H164.195L163.516 29.7109ZM171.227 58L161.922 29.7109L161.172 23.875H165.977L178.727 58H171.227ZM170.805 45.2969V50.8047H152.781V45.2969H170.805ZM195.25 43.0234H186.484L186.438 38.1953H193.797C195.094 38.1953 196.156 38.0312 196.984 37.7031C197.812 37.3594 198.43 36.8672 198.836 36.2266C199.258 35.5703 199.469 34.7734 199.469 33.8359C199.469 32.7734 199.266 31.9141 198.859 31.2578C198.469 30.6016 197.852 30.125 197.008 29.8281C196.18 29.5312 195.109 29.3828 193.797 29.3828H188.922V58H181.891V23.875H193.797C195.781 23.875 197.555 24.0625 199.117 24.4375C200.695 24.8125 202.031 25.3828 203.125 26.1484C204.219 26.9141 205.055 27.8828 205.633 29.0547C206.211 30.2109 206.5 31.5859 206.5 33.1797C206.5 34.5859 206.18 35.8828 205.539 37.0703C204.914 38.2578 203.922 39.2266 202.562 39.9766C201.219 40.7266 199.461 41.1406 197.289 41.2188L195.25 43.0234ZM194.945 58H184.562L187.305 52.5156H194.945C196.18 52.5156 197.188 52.3203 197.969 51.9297C198.75 51.5234 199.328 50.9766 199.703 50.2891C200.078 49.6016 200.266 48.8125 200.266 47.9219C200.266 46.9219 200.094 46.0547 199.75 45.3203C199.422 44.5859 198.891 44.0234 198.156 43.6328C197.422 43.2266 196.453 43.0234 195.25 43.0234H188.477L188.523 38.1953H196.961L198.578 40.0938C200.656 40.0625 202.328 40.4297 203.594 41.1953C204.875 41.9453 205.805 42.9219 206.383 44.125C206.977 45.3281 207.273 46.6172 207.273 47.9922C207.273 50.1797 206.797 52.0234 205.844 53.5234C204.891 55.0078 203.492 56.125 201.648 56.875C199.82 57.625 197.586 58 194.945 58ZM230.312 49.0703C230.312 48.4609 230.219 47.9141 230.031 47.4297C229.859 46.9297 229.531 46.4766 229.047 46.0703C228.562 45.6484 227.883 45.2344 227.008 44.8281C226.133 44.4219 225 44 223.609 43.5625C222.062 43.0625 220.594 42.5 219.203 41.875C217.828 41.25 216.609 40.5234 215.547 39.6953C214.5 38.8516 213.672 37.875 213.062 36.7656C212.469 35.6562 212.172 34.3672 212.172 32.8984C212.172 31.4766 212.484 30.1875 213.109 29.0312C213.734 27.8594 214.609 26.8594 215.734 26.0312C216.859 25.1875 218.188 24.5391 219.719 24.0859C221.266 23.6328 222.961 23.4062 224.805 23.4062C227.32 23.4062 229.516 23.8594 231.391 24.7656C233.266 25.6719 234.719 26.9141 235.75 28.4922C236.797 30.0703 237.32 31.875 237.32 33.9062H230.336C230.336 32.9062 230.125 32.0312 229.703 31.2812C229.297 30.5156 228.672 29.9141 227.828 29.4766C227 29.0391 225.953 28.8203 224.688 28.8203C223.469 28.8203 222.453 29.0078 221.641 29.3828C220.828 29.7422 220.219 30.2344 219.812 30.8594C219.406 31.4688 219.203 32.1562 219.203 32.9219C219.203 33.5 219.344 34.0234 219.625 34.4922C219.922 34.9609 220.359 35.3984 220.938 35.8047C221.516 36.2109 222.227 36.5938 223.07 36.9531C223.914 37.3125 224.891 37.6641 226 38.0078C227.859 38.5703 229.492 39.2031 230.898 39.9062C232.32 40.6094 233.508 41.3984 234.461 42.2734C235.414 43.1484 236.133 44.1406 236.617 45.25C237.102 46.3594 237.344 47.6172 237.344 49.0234C237.344 50.5078 237.055 51.8359 236.477 53.0078C235.898 54.1797 235.062 55.1719 233.969 55.9844C232.875 56.7969 231.57 57.4141 230.055 57.8359C228.539 58.2578 226.844 58.4688 224.969 58.4688C223.281 58.4688 221.617 58.25 219.977 57.8125C218.336 57.3594 216.844 56.6797 215.5 55.7734C214.172 54.8672 213.109 53.7109 212.312 52.3047C211.516 50.8984 211.117 49.2344 211.117 47.3125H218.172C218.172 48.375 218.336 49.2734 218.664 50.0078C218.992 50.7422 219.453 51.3359 220.047 51.7891C220.656 52.2422 221.375 52.5703 222.203 52.7734C223.047 52.9766 223.969 53.0781 224.969 53.0781C226.188 53.0781 227.188 52.9062 227.969 52.5625C228.766 52.2188 229.352 51.7422 229.727 51.1328C230.117 50.5234 230.312 49.8359 230.312 49.0703ZM265.023 52.5156V58H246.859V52.5156H265.023ZM249.156 23.875V58H242.125V23.875H249.156ZM262.656 37.7734V43.1172H246.859V37.7734H262.656ZM265 23.875V29.3828H246.859V23.875H265ZM296.898 23.875V58H289.867L276.156 35.125V58H269.125V23.875H276.156L289.891 46.7734V23.875H296.898ZM320.781 49.0703C320.781 48.4609 320.688 47.9141 320.5 47.4297C320.328 46.9297 320 46.4766 319.516 46.0703C319.031 45.6484 318.352 45.2344 317.477 44.8281C316.602 44.4219 315.469 44 314.078 43.5625C312.531 43.0625 311.062 42.5 309.672 41.875C308.297 41.25 307.078 40.5234 306.016 39.6953C304.969 38.8516 304.141 37.875 303.531 36.7656C302.938 35.6562 302.641 34.3672 302.641 32.8984C302.641 31.4766 302.953 30.1875 303.578 29.0312C304.203 27.8594 305.078 26.8594 306.203 26.0312C307.328 25.1875 308.656 24.5391 310.188 24.0859C311.734 23.6328 313.43 23.4062 315.273 23.4062C317.789 23.4062 319.984 23.8594 321.859 24.7656C323.734 25.6719 325.188 26.9141 326.219 28.4922C327.266 30.0703 327.789 31.875 327.789 33.9062H320.805C320.805 32.9062 320.594 32.0312 320.172 31.2812C319.766 30.5156 319.141 29.9141 318.297 29.4766C317.469 29.0391 316.422 28.8203 315.156 28.8203C313.938 28.8203 312.922 29.0078 312.109 29.3828C311.297 29.7422 310.688 30.2344 310.281 30.8594C309.875 31.4688 309.672 32.1562 309.672 32.9219C309.672 33.5 309.812 34.0234 310.094 34.4922C310.391 34.9609 310.828 35.3984 311.406 35.8047C311.984 36.2109 312.695 36.5938 313.539 36.9531C314.383 37.3125 315.359 37.6641 316.469 38.0078C318.328 38.5703 319.961 39.2031 321.367 39.9062C322.789 40.6094 323.977 41.3984 324.93 42.2734C325.883 43.1484 326.602 44.1406 327.086 45.25C327.57 46.3594 327.812 47.6172 327.812 49.0234C327.812 50.5078 327.523 51.8359 326.945 53.0078C326.367 54.1797 325.531 55.1719 324.438 55.9844C323.344 56.7969 322.039 57.4141 320.523 57.8359C319.008 58.2578 317.312 58.4688 315.438 58.4688C313.75 58.4688 312.086 58.25 310.445 57.8125C308.805 57.3594 307.312 56.6797 305.969 55.7734C304.641 54.8672 303.578 53.7109 302.781 52.3047C301.984 50.8984 301.586 49.2344 301.586 47.3125H308.641C308.641 48.375 308.805 49.2734 309.133 50.0078C309.461 50.7422 309.922 51.3359 310.516 51.7891C311.125 52.2422 311.844 52.5703 312.672 52.7734C313.516 52.9766 314.438 53.0781 315.438 53.0781C316.656 53.0781 317.656 52.9062 318.438 52.5625C319.234 52.2188 319.82 51.7422 320.195 51.1328C320.586 50.5234 320.781 49.8359 320.781 49.0703ZM340.07 23.875V58H333.062V23.875H340.07ZM363.555 39.7422L370.117 35.5C371.086 34.8594 371.734 34.2422 372.062 33.6484C372.391 33.0547 372.555 32.3906 372.555 31.6562C372.555 30.9219 372.281 30.2422 371.734 29.6172C371.188 28.9766 370.422 28.6562 369.438 28.6562C368.734 28.6562 368.141 28.8203 367.656 29.1484C367.172 29.4609 366.805 29.8828 366.555 30.4141C366.32 30.9453 366.203 31.5391 366.203 32.1953C366.203 32.8984 366.391 33.6172 366.766 34.3516C367.141 35.0703 367.648 35.8359 368.289 36.6484C368.93 37.4453 369.641 38.3125 370.422 39.25L386.523 58H378.859L365.734 42.8125C364.625 41.4375 363.656 40.1797 362.828 39.0391C362 37.8828 361.352 36.7578 360.883 35.6641C360.414 34.5703 360.18 33.4453 360.18 32.2891C360.18 30.5078 360.562 28.9531 361.328 27.625C362.094 26.2812 363.172 25.2422 364.562 24.5078C365.953 23.7578 367.586 23.3828 369.461 23.3828C371.227 23.3828 372.758 23.75 374.055 24.4844C375.352 25.2031 376.352 26.1562 377.055 27.3438C377.773 28.5312 378.133 29.8359 378.133 31.2578C378.133 32.3203 377.938 33.3047 377.547 34.2109C377.156 35.1016 376.617 35.9297 375.93 36.6953C375.242 37.4453 374.453 38.1406 373.562 38.7812L366.086 44.1016C365.508 44.6328 365.07 45.1562 364.773 45.6719C364.477 46.1875 364.273 46.6797 364.164 47.1484C364.055 47.6016 364 48.0391 364 48.4609C364 49.3672 364.195 50.1797 364.586 50.8984C364.977 51.6172 365.523 52.1797 366.227 52.5859C366.93 52.9922 367.75 53.1953 368.688 53.1953C369.969 53.1953 371.211 52.9141 372.414 52.3516C373.617 51.7891 374.695 50.9844 375.648 49.9375C376.602 48.875 377.359 47.6172 377.922 46.1641C378.484 44.7109 378.766 43.1094 378.766 41.3594H384.484C384.484 43.1094 384.312 44.7734 383.969 46.3516C383.625 47.9141 383.07 49.3672 382.305 50.7109C381.539 52.0391 380.523 53.2188 379.258 54.25C379.164 54.3281 379.031 54.4453 378.859 54.6016C378.703 54.7422 378.57 54.8516 378.461 54.9297C376.961 56.1328 375.398 57.0312 373.773 57.625C372.148 58.2031 370.336 58.4922 368.336 58.4922C366.055 58.4922 364.078 58.0781 362.406 57.25C360.75 56.4219 359.469 55.2812 358.562 53.8281C357.672 52.375 357.227 50.7109 357.227 48.8359C357.227 47.4609 357.492 46.2656 358.023 45.25C358.57 44.2188 359.32 43.2656 360.273 42.3906C361.227 41.5156 362.32 40.6328 363.555 39.7422ZM415.961 47.5234V23.875H422.969V47.5234C422.969 49.8047 422.469 51.7656 421.469 53.4062C420.469 55.0312 419.102 56.2812 417.367 57.1562C415.648 58.0312 413.711 58.4688 411.555 58.4688C409.32 58.4688 407.344 58.0938 405.625 57.3438C403.906 56.5938 402.555 55.4453 401.57 53.8984C400.586 52.3359 400.094 50.3594 400.094 47.9688H407.148C407.148 49.2188 407.32 50.2109 407.664 50.9453C408.023 51.6797 408.531 52.2031 409.188 52.5156C409.844 52.8281 410.633 52.9844 411.555 52.9844C412.445 52.9844 413.219 52.7734 413.875 52.3516C414.531 51.9297 415.039 51.3125 415.398 50.5C415.773 49.6875 415.961 48.6953 415.961 47.5234ZM447.812 23.875H454.82V46.4219C454.82 49.0469 454.258 51.2578 453.133 53.0547C452.023 54.8516 450.484 56.2031 448.516 57.1094C446.562 58.0156 444.312 58.4688 441.766 58.4688C439.219 58.4688 436.953 58.0156 434.969 57.1094C433 56.2031 431.453 54.8516 430.328 53.0547C429.219 51.2578 428.664 49.0469 428.664 46.4219V23.875H435.695V46.4219C435.695 47.9531 435.938 49.2031 436.422 50.1719C436.906 51.1406 437.602 51.8516 438.508 52.3047C439.43 52.7578 440.516 52.9844 441.766 52.9844C443.047 52.9844 444.133 52.7578 445.023 52.3047C445.93 51.8516 446.617 51.1406 447.086 50.1719C447.57 49.2031 447.812 47.9531 447.812 46.4219V23.875ZM460.609 23.875H473.336C475.945 23.875 478.188 24.2656 480.062 25.0469C481.953 25.8281 483.406 26.9844 484.422 28.5156C485.438 30.0469 485.945 31.9297 485.945 34.1641C485.945 35.9922 485.633 37.5625 485.008 38.875C484.398 40.1719 483.531 41.2578 482.406 42.1328C481.297 42.9922 479.992 43.6797 478.492 44.1953L476.266 45.3672H465.203L465.156 39.8828H473.383C474.617 39.8828 475.641 39.6641 476.453 39.2266C477.266 38.7891 477.875 38.1797 478.281 37.3984C478.703 36.6172 478.914 35.7109 478.914 34.6797C478.914 33.5859 478.711 32.6406 478.305 31.8438C477.898 31.0469 477.281 30.4375 476.453 30.0156C475.625 29.5938 474.586 29.3828 473.336 29.3828H467.641V58H460.609V23.875ZM479.688 58L471.906 42.7891L479.336 42.7422L487.211 57.6719V58H479.688ZM519.133 23.875V58H512.102L498.391 35.125V58H491.359V23.875H498.391L512.125 46.7734V23.875H519.133ZM539.547 29.7109L530.266 58H522.789L535.469 23.875H540.227L539.547 29.7109ZM547.258 58L537.953 29.7109L537.203 23.875H542.008L554.758 58H547.258ZM546.836 45.2969V50.8047H528.812V45.2969H546.836ZM579.859 52.5156V58H562.68V52.5156H579.859ZM564.953 23.875V58H557.922V23.875H564.953Z" fill="white"/>
</svg>
