<?xml version="1.0" standalone="no"?>
<!DOCTYPE svg PUBLIC "-//W3C//DTD SVG 20010904//EN"
 "http://www.w3.org/TR/2001/REC-SVG-20010904/DTD/svg10.dtd">
<svg version="1.0" xmlns="http://www.w3.org/2000/svg"
 width="1230.000000pt" height="1230.000000pt" viewBox="0 0 1230.000000 1230.000000"
 preserveAspectRatio="xMidYMid meet">

<g transform="translate(0.000000,1230.000000) scale(0.100000,-0.100000)"
fill="#000000" stroke="none">
<path d="M6495 11183 c-38 -1 -362 -10 -719 -18 -357 -8 -651 -17 -654 -19 -2
-3 -6 -200 -9 -440 -4 -239 -9 -439 -12 -444 -3 -5 -67 -23 -141 -41 -169 -41
-449 -134 -600 -199 -192 -82 -276 -124 -495 -246 -29 -16 -64 -39 -202 -129
-87 -56 -126 -77 -135 -70 -7 5 -174 130 -370 278 l-357 267 -83 -68 c-260
-216 -595 -549 -838 -835 -93 -109 -105 -124 -113 -135 -3 -6 58 -95 136 -197
78 -102 180 -236 227 -297 47 -62 90 -118 95 -124 23 -24 95 -123 95 -130 0
-4 -37 -67 -81 -138 -79 -128 -217 -393 -260 -500 -135 -336 -224 -635 -274
-915 l-17 -93 -112 1 c-61 0 -257 6 -436 13 -179 7 -328 10 -332 6 -9 -7 -11
-1590 -3 -1599 6 -5 434 -17 756 -20 l126 -1 12 -62 c35 -182 136 -528 194
-665 97 -228 127 -294 192 -418 86 -166 151 -277 262 -443 46 -68 83 -127 83
-131 0 -8 -457 -463 -557 -557 -29 -26 -53 -52 -53 -57 0 -5 53 -66 118 -136
65 -69 155 -169 201 -221 46 -52 232 -242 413 -422 245 -243 334 -325 346
-321 9 4 63 41 119 82 56 42 162 120 235 173 73 54 185 136 248 183 63 46 124
87 135 90 14 4 64 -19 158 -75 277 -162 585 -299 862 -384 233 -71 321 -93
560 -140 l160 -32 3 -103 c1 -57 -1 -253 -6 -435 -6 -182 -8 -333 -6 -335 1
-2 294 2 651 8 356 6 730 11 830 12 l183 1 2 446 3 447 85 23 c526 142 966
342 1430 651 79 53 147 97 151 99 6 3 105 -72 454 -341 55 -43 107 -83 115
-90 8 -7 31 -23 50 -37 19 -13 46 -35 60 -47 14 -13 30 -23 35 -23 9 0 162
156 284 289 13 14 85 90 159 168 74 79 142 152 152 163 9 11 89 95 177 187
241 254 265 281 261 292 -1 5 -21 29 -43 53 -22 24 -74 81 -115 128 -41 47
-77 87 -80 90 -3 3 -35 39 -70 80 -36 41 -72 81 -81 90 -8 8 -49 53 -90 100
-41 47 -82 94 -91 104 -10 11 -18 25 -18 32 0 6 28 60 62 120 156 276 319 667
393 949 59 223 77 298 104 444 17 90 31 165 33 166 2 2 53 11 113 20 61 9 169
25 240 36 72 11 175 26 230 33 150 21 320 48 323 50 26 25 38 856 15 1061 -7
61 -25 187 -40 282 l-27 172 -50 5 c-28 3 -226 10 -441 16 -214 6 -401 14
-414 18 -20 6 -27 20 -43 82 -36 139 -136 433 -183 535 -7 17 -33 75 -58 131
-48 106 -134 273 -174 336 -12 21 -23 39 -23 42 0 14 -187 302 -267 410 -42
57 -43 59 -26 80 22 26 23 28 341 348 144 146 262 270 262 274 0 11 -128 171
-224 279 -167 190 -390 405 -581 561 -113 92 -348 264 -361 264 -6 0 -120 -94
-209 -171 -16 -15 -82 -70 -145 -124 -63 -53 -166 -140 -228 -193 -63 -53
-118 -99 -123 -100 -5 -2 -67 28 -137 66 -437 240 -851 381 -1417 484 l-70 13
-7 55 c-7 55 -38 377 -58 605 -6 66 -14 145 -18 175 l-7 55 -40 1 c-22 0 -71
-1 -110 -3z m-268 -1033 l223 0 0 -64 0 -64 -249 5 -249 6 -4 -79 c-3 -43 -3
-82 -1 -86 2 -5 107 -8 234 -8 l229 0 0 -66 0 -67 -235 5 -235 5 0 -104 0
-103 260 0 260 0 0 -67 0 -66 -227 6 c-124 4 -284 7 -355 7 l-128 0 0 113 c0
61 3 231 7 376 l6 264 120 -7 c66 -3 221 -6 344 -6z m-816 -150 c141 -431 190
-593 183 -599 -5 -4 -46 -15 -91 -25 l-82 -17 -98 76 c-54 41 -117 90 -141
108 -24 17 -48 37 -55 42 -7 6 -28 22 -47 35 -19 13 -44 33 -55 43 -35 32
-115 87 -115 79 0 -4 29 -95 64 -202 35 -107 67 -209 70 -227 7 -31 7 -31 -47
-43 -113 -23 -108 -25 -139 65 -15 44 -55 168 -89 275 -34 107 -72 226 -85
263 -36 102 -37 100 61 121 l85 17 62 -48 c34 -26 71 -55 83 -65 11 -9 55 -42
97 -75 42 -32 120 -91 173 -132 53 -40 98 -71 101 -69 3 3 -11 52 -29 109 -89
269 -108 332 -105 347 2 11 22 20 63 28 98 19 93 23 136 -106z m1853 19 c183
-46 280 -131 288 -254 l3 -40 -65 2 c-103 3 -130 11 -130 35 0 38 -40 88 -93
115 -75 38 -194 44 -259 13 -98 -46 -168 -160 -168 -276 0 -75 14 -108 64
-152 46 -40 121 -62 210 -62 103 0 139 13 154 53 7 18 12 38 12 44 0 11 -44
25 -132 43 -32 6 -59 14 -62 18 -2 4 5 31 17 60 21 57 30 60 96 42 20 -5 95
-24 166 -41 72 -17 134 -34 139 -39 9 -9 -79 -256 -100 -279 -37 -41 -293 -55
-419 -22 -140 36 -235 94 -292 179 -113 165 -20 433 185 534 121 60 226 67
386 27z m850 -310 c66 -34 173 -89 236 -122 63 -33 137 -71 163 -84 l48 -23
-43 -54 -43 -54 -211 108 -212 109 -23 -27 c-13 -15 -39 -46 -57 -69 l-33 -42
123 -64 c68 -36 153 -80 191 -98 40 -20 67 -39 67 -49 0 -8 -17 -34 -37 -57
l-36 -43 -194 100 c-106 55 -196 100 -200 100 -15 -1 -134 -163 -126 -171 4
-4 98 -53 208 -110 110 -56 203 -105 208 -109 10 -9 -62 -100 -80 -100 -8 0
-116 52 -241 116 -293 151 -344 179 -344 188 2 16 488 615 501 615 7 1 68 -27
135 -60z m-4164 -21 c0 -13 -12 -90 -26 -173 -14 -82 -26 -161 -27 -174 -2
-27 -27 -18 388 -141 116 -34 216 -64 224 -66 21 -7 2 -23 -94 -78 l-81 -46
-215 73 c-118 40 -221 77 -228 81 -19 12 -27 -2 -40 -68 -17 -91 -15 -104 27
-146 116 -118 125 -129 114 -142 -6 -7 -41 -29 -77 -48 l-66 -35 -21 25 c-20
25 -119 131 -242 260 -34 36 -113 121 -176 188 l-114 124 23 17 c13 10 47 31
76 46 l52 28 70 -74 c39 -41 92 -98 118 -126 26 -29 50 -53 54 -53 4 0 20 98
35 218 15 119 30 219 32 221 8 9 179 109 187 110 4 1 7 -9 7 -21z m4944 -445
c23 -21 79 -72 126 -113 109 -98 188 -178 211 -215 23 -36 25 -105 5 -143 -20
-38 -74 -86 -125 -112 -67 -33 -143 -37 -216 -10 -33 12 -67 24 -75 26 -12 4
-14 -5 -12 -49 3 -42 -4 -78 -33 -161 -20 -59 -43 -123 -51 -142 -17 -41 -21
-40 -108 40 l-59 54 43 128 c66 203 64 252 -10 311 l-28 23 -43 -33 c-132 -96
-235 -167 -245 -167 -7 0 -37 24 -68 53 l-57 52 58 42 c32 23 121 87 198 142
77 55 149 107 160 115 155 114 272 195 279 196 5 0 27 -17 50 -37z m-2524 7
c408 -35 827 -153 1194 -336 140 -70 370 -209 443 -268 10 -8 65 -52 123 -97
451 -355 863 -926 1068 -1479 178 -481 230 -924 176 -1495 -44 -465 -200 -947
-438 -1360 -150 -259 -437 -598 -681 -803 -49 -42 -92 -79 -95 -82 -16 -16
-179 -136 -258 -189 -447 -299 -884 -466 -1407 -537 -179 -25 -622 -25 -815
-1 -946 120 -1713 556 -2267 1289 -208 274 -397 609 -502 890 -90 240 -152
515 -182 806 -19 185 -6 600 25 807 72 483 200 863 408 1215 57 95 177 282
187 290 4 3 22 25 41 50 81 106 186 223 301 337 566 555 1262 893 1984 963 61
6 137 11 170 13 114 4 410 -3 525 -13z m-3252 -219 c64 -37 227 -132 362 -211
135 -78 251 -148 259 -156 12 -11 7 -20 -35 -64 -26 -27 -52 -50 -56 -50 -4 0
-31 14 -60 32 -29 17 -78 46 -108 63 -30 18 -120 70 -200 117 -80 47 -156 91
-170 98 l-25 13 20 -22 c22 -26 167 -168 328 -322 l108 -104 -53 -59 -54 -59
-240 77 c-131 43 -279 91 -327 108 -49 16 -91 28 -93 25 -3 -2 32 -26 78 -53
46 -26 144 -84 218 -128 74 -45 152 -90 172 -100 20 -11 47 -28 60 -37 l23
-18 -53 -53 -52 -53 -33 19 c-17 10 -66 38 -107 61 -170 97 -605 356 -607 363
-1 4 35 46 80 94 l82 87 175 -55 c96 -30 220 -68 275 -85 55 -17 110 -35 123
-40 12 -5 22 -5 22 0 0 4 -88 94 -195 199 -107 106 -195 196 -195 201 0 4 26
36 58 71 31 34 66 73 76 86 11 13 21 24 23 24 2 0 56 -31 121 -69z m6447 -482
c25 -34 42 -65 40 -70 -3 -5 -24 -14 -45 -20 -22 -7 -40 -16 -40 -21 0 -4 -5
-8 -10 -8 -6 0 -73 -30 -148 -66 -75 -37 -177 -86 -227 -109 -49 -23 -138 -66
-197 -94 -59 -28 -114 -51 -123 -51 -14 0 -95 100 -95 118 0 4 19 17 43 27 23
10 138 65 255 122 117 57 215 103 217 103 1 0 63 29 136 65 74 35 137 65 142
65 4 0 27 -27 52 -61z m-7036 -388 c11 -7 10 -20 -10 -74 l-23 -65 -55 -5
c-66 -7 -99 -29 -128 -88 -38 -76 -24 -139 32 -153 42 -11 91 21 159 103 123
147 192 196 296 208 118 14 260 -59 295 -151 49 -128 -43 -333 -179 -403 -43
-22 -68 -27 -158 -31 -124 -5 -120 -9 -90 88 l18 55 71 6 c40 3 81 12 96 22
46 30 80 84 85 137 6 60 -14 95 -64 116 -50 21 -99 -2 -165 -79 -151 -178
-213 -217 -338 -217 -90 0 -140 20 -191 74 -41 42 -48 62 -49 133 -2 119 102
275 209 315 48 18 166 23 189 9z m7060 -351 c251 -70 334 -93 398 -112 26 -8
35 -18 48 -59 11 -32 14 -54 8 -60 -5 -5 -113 -32 -239 -59 -330 -72 -317 -68
-309 -99 15 -62 14 -64 -50 -77 -84 -18 -83 -18 -96 26 -14 46 -20 47 -114 24
-36 -9 -71 -14 -78 -11 -15 6 -52 111 -43 125 3 5 39 15 81 22 42 7 78 17 81
21 3 5 -15 70 -40 144 -25 74 -46 139 -46 143 0 5 30 16 68 24 37 9 69 16 71
17 2 0 119 -31 260 -69z m-64 -3161 c55 -11 127 -24 160 -29 205 -32 279 -60
325 -122 38 -53 46 -106 26 -190 -17 -74 -46 -131 -82 -166 -32 -30 -134 -72
-175 -72 -32 0 -474 71 -566 92 -29 6 -53 16 -53 23 0 13 30 115 33 115 6 0
295 -49 377 -64 152 -27 202 -29 247 -11 84 34 111 162 44 212 -27 20 -222 60
-516 105 -38 6 -73 14 -78 17 -4 4 -2 33 5 65 l11 58 71 -7 c39 -3 116 -15
171 -26z m-6672 -103 c10 -31 16 -60 13 -63 -3 -3 -76 -20 -163 -37 -88 -17
-155 -35 -153 -41 2 -5 38 -25 79 -43 77 -34 91 -40 241 -110 l85 -39 22 -82
c21 -80 19 -90 -15 -71 -31 18 -335 160 -341 160 -3 0 -24 -17 -46 -38 -22
-20 -87 -78 -145 -127 -58 -50 -114 -98 -125 -109 -35 -31 -85 -69 -89 -65 -6
9 -46 140 -46 154 0 8 10 20 23 26 18 10 108 80 127 99 3 3 31 25 63 50 32 25
68 52 80 61 20 17 19 18 -62 59 l-83 41 -61 -15 c-34 -9 -87 -18 -118 -22
l-56 -6 -17 48 c-9 26 -16 55 -16 63 0 13 64 28 328 80 180 35 352 70 382 77
30 7 59 11 64 10 6 -1 18 -28 29 -60z m215 -680 c117 -60 202 -187 202 -299 0
-99 -48 -170 -165 -242 -126 -78 -262 -106 -385 -80 -86 18 -138 46 -198 106
-66 68 -97 139 -97 225 1 62 5 78 30 115 53 81 107 122 227 170 85 35 107 38
223 36 98 -3 116 -6 163 -31z m6737 -27 c30 -11 55 -24 55 -29 0 -5 -30 -59
-66 -122 -36 -62 -89 -152 -117 -200 -28 -49 -55 -88 -59 -88 -5 0 -158 57
-341 126 -182 69 -342 128 -354 131 -13 3 -23 10 -23 17 0 13 58 116 65 116 7
0 375 -138 400 -150 11 -5 58 -23 104 -40 81 -29 120 -32 122 -7 0 7 18 41 39
77 21 36 53 93 72 128 18 34 36 62 40 62 4 0 32 -9 63 -21z m-963 -295 c17 -9
36 -20 42 -25 6 -6 49 -34 96 -64 302 -191 334 -215 365 -282 19 -40 14 -86
-15 -143 -38 -73 -139 -161 -218 -190 -117 -43 -200 -17 -429 132 -70 47 -156
101 -191 122 -35 21 -66 45 -69 52 -5 13 73 104 89 104 8 0 199 -121 270 -171
15 -10 30 -19 33 -19 3 0 37 -21 75 -46 112 -75 193 -73 265 7 27 30 35 48 35
77 0 48 -10 57 -165 157 -66 43 -164 107 -219 142 l-98 65 48 49 c27 27 50 49
52 49 1 0 17 -7 34 -16z m-5370 -167 c20 -18 56 -50 80 -71 23 -22 90 -83 148
-136 58 -53 118 -108 134 -122 l29 -24 -52 -38 -52 -37 -78 71 c-43 38 -81 70
-85 70 -3 0 -87 -60 -186 -132 -100 -73 -191 -140 -204 -148 -12 -8 -41 -30
-63 -47 -23 -18 -45 -33 -50 -33 -5 0 -31 23 -58 50 -35 36 -46 53 -38 58 16
10 209 150 356 260 62 45 115 82 119 82 11 0 10 28 -1 32 -20 7 -131 118 -131
130 1 14 67 66 86 67 5 1 26 -14 46 -32z m4874 -428 c-8 -63 -18 -135 -22
-160 l-6 -46 153 -42 c85 -24 199 -56 253 -72 55 -16 107 -29 117 -29 41 0 25
-23 -48 -70 -52 -33 -85 -48 -98 -44 -11 3 -83 26 -160 51 -245 79 -225 75
-234 50 -5 -12 -12 -46 -16 -75 l-7 -52 76 -79 c85 -87 85 -79 -1 -134 -52
-33 -57 -33 -81 -3 -10 14 -118 127 -238 251 -120 125 -220 232 -222 239 -2 7
24 29 57 50 l60 37 107 -111 c79 -81 110 -107 115 -97 5 7 13 81 19 163 16
217 11 206 105 268 66 44 81 50 83 36 2 -10 -4 -69 -12 -131z m-4232 -80 c32
-17 60 -37 63 -44 2 -7 -41 -153 -96 -323 -56 -170 -101 -313 -101 -319 0 -5
-6 -18 -14 -28 -13 -18 -16 -17 -80 21 -74 44 -75 45 -34 148 10 27 17 50 16
51 -29 20 -111 72 -177 110 l-84 49 -79 -43 c-43 -24 -85 -40 -93 -37 -8 3
-40 22 -71 41 l-57 36 59 31 c218 116 662 337 675 338 8 0 41 -14 73 -31z
m3517 -270 c64 -20 129 -63 129 -84 0 -6 -17 -20 -37 -31 -21 -11 -48 -27 -60
-34 -19 -13 -27 -12 -61 8 -77 43 -228 19 -284 -44 -68 -77 -55 -176 38 -291
72 -88 197 -112 305 -59 56 29 119 82 119 101 0 15 -30 75 -37 75 -3 0 -37
-11 -75 -25 -38 -14 -77 -25 -87 -25 -10 0 -26 18 -39 46 -13 26 -21 48 -20
50 9 8 292 104 308 104 13 0 36 -33 79 -115 34 -63 61 -119 61 -124 0 -10 -71
-85 -114 -120 -40 -33 -130 -76 -200 -96 -44 -13 -84 -16 -160 -13 -89 4 -108
8 -161 35 -75 38 -158 125 -192 200 -21 46 -27 73 -27 133 1 85 11 111 73 181
47 53 160 112 256 132 41 9 153 7 186 -4z m-2701 -97 c63 -17 142 -38 175 -47
123 -34 182 -81 192 -155 12 -88 -27 -138 -140 -174 -15 -5 -13 -10 17 -37 74
-65 71 -154 -8 -227 -68 -63 -138 -75 -271 -47 -109 23 -379 96 -389 106 -5 5
4 38 22 81 17 40 56 138 87 218 31 80 66 170 79 200 13 30 27 66 31 80 4 14
12 30 17 36 9 13 10 13 188 -34z m1953 -109 c3 -10 10 -47 17 -83 6 -36 22
-119 35 -185 51 -256 65 -335 65 -353 0 -17 -10 -20 -82 -26 l-82 -7 -50 49
c-224 218 -346 330 -346 319 0 -2 9 -51 20 -108 44 -227 49 -255 52 -279 3
-24 -1 -25 -70 -36 -54 -8 -75 -8 -77 0 -2 6 -17 88 -35 181 -17 94 -36 190
-41 215 -6 25 -15 70 -20 100 -5 30 -13 74 -18 98 -10 51 -5 55 93 66 l58 6
97 -93 c216 -209 293 -282 300 -285 8 -3 -1 75 -17 148 -6 25 -18 86 -27 135
-9 50 -18 100 -21 112 -4 19 1 23 33 28 21 4 45 8 53 10 39 8 59 4 63 -12z
m-1113 -43 c96 -6 212 -13 257 -16 l82 -6 -6 -51 c-3 -29 -7 -54 -9 -56 -1 -2
-99 3 -216 11 -117 8 -214 14 -215 14 -1 -1 -4 -33 -8 -73 l-7 -72 33 -5 c19
-3 108 -9 199 -14 l165 -7 0 -52 c-1 -29 -3 -54 -5 -57 -3 -2 -57 0 -120 4
-63 5 -154 9 -201 9 l-86 1 -6 -82 c-4 -45 -5 -83 -3 -85 3 -3 389 -32 435
-33 10 0 12 -12 9 -50 -3 -28 -8 -53 -12 -57 -7 -8 -590 27 -605 36 -6 4 -6
38 0 91 26 254 39 384 45 465 3 50 9 94 11 98 3 5 24 6 47 3 22 -3 120 -10
216 -16z"/>
<path d="M8761 9020 l-83 -59 38 -36 c88 -82 173 -145 202 -151 66 -13 142 38
142 95 0 20 -22 47 -97 119 -54 50 -102 92 -108 92 -5 0 -48 -27 -94 -60z"/>
<path d="M6090 7711 c-98 -22 -160 -72 -186 -150 -14 -45 -15 -59 -4 -94 14
-48 48 -92 96 -125 19 -12 34 -29 34 -37 0 -17 -16 -20 -240 -40 -242 -22
-220 -12 -220 -106 0 -69 2 -79 18 -79 12 0 399 -35 440 -40 1 0 2 -227 2
-505 l0 -504 -22 -13 c-16 -9 -66 -13 -158 -13 -131 0 -137 1 -212 33 -86 37
-218 125 -218 146 0 7 22 28 50 47 46 31 61 49 42 49 -19 0 -170 86 -274 158
-43 28 -81 52 -86 52 -5 0 -17 -34 -27 -76 -21 -91 -16 -251 10 -327 15 -41
20 -47 39 -41 11 4 32 15 45 25 30 24 33 24 62 -2 13 -12 40 -33 59 -48 19
-14 41 -32 48 -38 22 -21 147 -91 219 -124 84 -38 199 -81 319 -120 96 -31
158 -68 195 -119 24 -32 39 -38 39 -17 0 30 98 108 175 139 89 36 131 50 210
68 45 11 118 33 161 50 152 60 232 116 309 213 l30 39 42 -36 c22 -20 46 -36
52 -36 23 0 55 175 46 255 -9 91 -38 195 -54 195 -3 0 -17 -10 -31 -23 -42
-37 -113 -87 -126 -87 -7 0 -14 -4 -16 -10 -1 -5 -45 -28 -96 -52 l-94 -43 56
-39 c31 -21 56 -42 56 -47 0 -15 -122 -100 -188 -131 -145 -68 -259 -82 -362
-46 l-65 23 -3 494 c-1 290 2 499 7 504 5 5 107 17 228 27 120 10 219 19 221
19 1 1 2 43 2 95 l0 93 -187 7 c-227 8 -273 14 -273 32 0 8 17 24 38 38 47 30
68 53 87 99 28 68 14 132 -42 193 -55 61 -168 94 -253 75z m141 -140 c31 -31
38 -75 19 -112 -12 -21 -76 -55 -100 -53 -8 1 -25 2 -38 3 -13 0 -37 14 -53
30 -39 40 -40 93 -2 133 23 24 34 28 86 28 51 0 62 -4 88 -29z"/>
<path d="M9390 7732 c0 -26 45 -135 58 -140 9 -3 45 2 81 11 36 9 93 21 126
28 33 7 64 15 68 19 5 4 -24 15 -65 25 -40 10 -109 29 -152 41 -83 25 -116 29
-116 16z"/>
<path d="M2777 3745 c-134 -47 -197 -112 -197 -200 0 -62 24 -104 81 -142 39
-25 51 -28 128 -28 106 1 196 35 271 102 74 67 80 148 17 220 -67 76 -173 93
-300 48z"/>
<path d="M3858 2667 c-65 -34 -118 -64 -118 -67 0 -8 156 -100 169 -100 6 0
11 6 11 13 0 7 17 59 39 115 22 58 34 102 27 102 -6 -1 -64 -29 -128 -63z"/>
<path d="M4832 2329 c-13 -39 -22 -72 -20 -73 5 -5 168 -45 211 -52 105 -18
163 94 69 133 -33 14 -214 63 -231 63 -3 0 -17 -32 -29 -71z"/>
<path d="M4747 2118 c-34 -81 -49 -129 -44 -134 8 -8 238 -64 263 -64 78 0
124 89 72 137 -21 19 -166 71 -245 88 -30 6 -33 4 -46 -27z"/>
</g>
</svg>
