<svg width="84" height="84" viewBox="0 0 84 84" fill="none" xmlns="http://www.w3.org/2000/svg">
<circle cx="42" cy="42" r="42" fill="white"/>
<path d="M40.8125 49.0703C40.8125 48.4609 40.7188 47.9141 40.5312 47.4297C40.3594 46.9297 40.0312 46.4766 39.5469 46.0703C39.0625 45.6484 38.3828 45.2344 37.5078 44.8281C36.6328 44.4219 35.5 44 34.1094 43.5625C32.5625 43.0625 31.0938 42.5 29.7031 41.875C28.3281 41.25 27.1094 40.5234 26.0469 39.6953C25 38.8516 24.1719 37.875 23.5625 36.7656C22.9688 35.6562 22.6719 34.3672 22.6719 32.8984C22.6719 31.4766 22.9844 30.1875 23.6094 29.0312C24.2344 27.8594 25.1094 26.8594 26.2344 26.0312C27.3594 25.1875 28.6875 24.5391 30.2188 24.0859C31.7656 23.6328 33.4609 23.4062 35.3047 23.4062C37.8203 23.4062 40.0156 23.8594 41.8906 24.7656C43.7656 25.6719 45.2188 26.9141 46.25 28.4922C47.2969 30.0703 47.8203 31.875 47.8203 33.9062H40.8359C40.8359 32.9062 40.625 32.0312 40.2031 31.2812C39.7969 30.5156 39.1719 29.9141 38.3281 29.4766C37.5 29.0391 36.4531 28.8203 35.1875 28.8203C33.9688 28.8203 32.9531 29.0078 32.1406 29.3828C31.3281 29.7422 30.7188 30.2344 30.3125 30.8594C29.9062 31.4688 29.7031 32.1562 29.7031 32.9219C29.7031 33.5 29.8438 34.0234 30.125 34.4922C30.4219 34.9609 30.8594 35.3984 31.4375 35.8047C32.0156 36.2109 32.7266 36.5938 33.5703 36.9531C34.4141 37.3125 35.3906 37.6641 36.5 38.0078C38.3594 38.5703 39.9922 39.2031 41.3984 39.9062C42.8203 40.6094 44.0078 41.3984 44.9609 42.2734C45.9141 43.1484 46.6328 44.1406 47.1172 45.25C47.6016 46.3594 47.8438 47.6172 47.8438 49.0234C47.8438 50.5078 47.5547 51.8359 46.9766 53.0078C46.3984 54.1797 45.5625 55.1719 44.4688 55.9844C43.375 56.7969 42.0703 57.4141 40.5547 57.8359C39.0391 58.2578 37.3438 58.4688 35.4688 58.4688C33.7812 58.4688 32.1172 58.25 30.4766 57.8125C28.8359 57.3594 27.3438 56.6797 26 55.7734C24.6719 54.8672 23.6094 53.7109 22.8125 52.3047C22.0156 50.8984 21.6172 49.2344 21.6172 47.3125H28.6719C28.6719 48.375 28.8359 49.2734 29.1641 50.0078C29.4922 50.7422 29.9531 51.3359 30.5469 51.7891C31.1562 52.2422 31.875 52.5703 32.7031 52.7734C33.5469 52.9766 34.4688 53.0781 35.4688 53.0781C36.6875 53.0781 37.6875 52.9062 38.4688 52.5625C39.2656 52.2188 39.8516 51.7422 40.2266 51.1328C40.6172 50.5234 40.8125 49.8359 40.8125 49.0703ZM60.1016 23.875V58H53.0938V23.875H60.1016Z" fill="#0008C1"/>
</svg>
